<svg width="36" height="36" viewBox="0 0 36 36" fill="none" xmlns="http://www.w3.org/2000/svg">
<rect width="36" height="36" rx="8" fill="#20A100"/>
<g clip-path="url(#clip0_4_17)">
<path d="M23.7788 10C22.7411 10.0391 21.7135 10.2188 20.7241 10.5342C20.1261 10.7106 19.5173 10.8484 18.9016 10.9468C18.6535 9.56138 17.9267 8.30712 16.848 7.40298C15.7694 6.49885 14.4075 6.00229 13 6V8C13.866 8.00304 14.7076 8.28755 15.3979 8.81064C16.0881 9.33373 16.5896 10.067 16.8267 10.9C16.3086 10.8121 15.7698 10.6793 15.2095 10.5352C14.1768 10.2246 13.1092 10.0448 12.0317 10C8.311 10 6 13.0652 6 18C6 25.51 10.0679 29.999 14.0005 30H14.002C14.8607 29.9545 15.7042 29.7546 16.492 29.41C16.9701 29.1953 17.479 29.057 18 29C18.5221 29.0569 19.032 29.1952 19.5112 29.41C20.2986 29.7547 21.1417 29.9545 22 30C25.9307 29.999 30 25.51 30 18C30 14.3094 28.3706 10 23.7788 10ZM22 28C21.3813 27.9475 20.7759 27.7906 20.2095 27.5361C19.5108 27.2273 18.7625 27.0458 18 27C17.2386 27.0459 16.4915 27.2274 15.7939 27.5361C15.2263 27.7904 14.6198 27.9473 14 28H14.0015C11.0513 27.9988 8 24.2586 8 18C8 16.1963 8.3931 12 12.0317 12C12.9411 12.0483 13.8413 12.207 14.7124 12.4726C15.704 12.7693 16.7275 12.9464 17.7612 13H18.2534C19.2709 12.9514 20.2778 12.7712 21.249 12.4639C22.0684 12.1993 22.9189 12.0434 23.7788 12C27.7964 12 28 16.9978 28 18C28 24.2586 24.9482 27.9988 22 28Z" fill="white"/>
<path d="M20 9H19V8C19.0006 7.46974 19.2114 6.96135 19.5864 6.5864C19.9614 6.21145 20.4697 6.00056 21 6H22V7C21.9994 7.53026 21.7886 8.03865 21.4136 8.4136C21.0386 8.78855 20.5303 8.99944 20 9Z" fill="white"/>
</g>
<defs>
<clipPath id="clip0_4_17">
<rect width="32" height="32" fill="white" transform="translate(2 2)"/>
</clipPath>
</defs>
</svg>
