<svg width="36" height="36" viewBox="0 0 36 36" fill="none" xmlns="http://www.w3.org/2000/svg">
<rect width="36" height="36" rx="8" fill="#FEA800"/>
<g clip-path="url(#clip0_5_3557)">
<path d="M25 4L26.593 7L30 7.414L27.5 9.667L28 13L25 11.125L22 13L22.5 9.667L20 7.414L23.5 7L25 4Z" fill="white"/>
<path d="M24.7168 15.249L22.7793 14.751C22.432 16.0893 21.6958 17.2946 20.6638 18.2147C19.6317 19.1348 18.3502 19.7283 16.9809 19.9204C15.6117 20.1124 14.2163 19.8944 12.971 19.2937C11.7256 18.6931 10.6862 17.7368 9.98411 16.5457C9.282 15.3547 8.94866 13.9822 9.0262 12.6017C9.10374 11.2213 9.58868 9.89479 10.4198 8.78983C11.2509 7.68486 12.3908 6.85101 13.6956 6.39361C15.0003 5.93621 16.4114 5.87579 17.7505 6.21997L18.2495 4.28348C16.2979 3.77656 14.2325 3.94048 12.3852 4.74889C10.5379 5.55731 9.0161 6.96328 8.06422 8.74086C7.11234 10.5185 6.7857 12.5644 7.13678 14.55C7.48787 16.5356 8.49629 18.3456 10 19.689V32L16 28L22 32V19.7078C23.3281 18.5241 24.2738 16.9719 24.7168 15.249ZM20 28.2627L16 25.5962L12 28.2627V21.05C13.241 21.6735 14.6104 21.9987 15.9993 21.9998C17.3881 22.0008 18.758 21.6777 20 21.0562V28.2627Z" fill="white"/>
</g>
<defs>
<clipPath id="clip0_5_3557">
<rect width="32" height="32" fill="white" transform="translate(2 2)"/>
</clipPath>
</defs>
</svg>
