<svg width="57" height="53" viewBox="0 0 57 53" fill="none" xmlns="http://www.w3.org/2000/svg">
<path d="M56.5 1L6.55043e-06 52.5319L0 14.8706C-1.34772e-06 7.12194 6.29404 0.847033 14.0427 0.870641L56.5 1Z" fill="#FFA800"/>
<path d="M21 10.5L18.4453 11.4453L17.5 14L16.5547 11.4453L14 10.5L16.5547 9.55468L17.5 7L18.4453 9.55468L21 10.5Z" fill="white"/>
<path d="M17.5 28L16.5547 25.4453L14 24.5L16.5547 23.5547L17.5 21L18.4453 23.5547L21 24.5L18.4453 25.4453L17.5 28Z" fill="white"/>
<path d="M18 17L12.5257 19.1607L10.5 25L8.47431 19.1607L3 17L8.47431 14.8393L10.5 9L12.5257 14.8393L18 17Z" fill="white"/>
</svg>
