<svg width="24" height="24" viewBox="0 0 24 24" fill="none" xmlns="http://www.w3.org/2000/svg">
<g id="Leading Icon">
<path id="Union" fill-rule="evenodd" clip-rule="evenodd" d="M8.75 2C8.75 1.58579 8.41421 1.25 8 1.25C7.58579 1.25 7.25 1.58579 7.25 2V2.75H7C4.37665 2.75 2.25 4.87665 2.25 7.5V9V18C2.25 20.6234 4.37665 22.75 7 22.75H17C19.6234 22.75 21.75 20.6234 21.75 18V9V7.5C21.75 4.87665 19.6234 2.75 17 2.75H16.75V2C16.75 1.58579 16.4142 1.25 16 1.25C15.5858 1.25 15.25 1.58579 15.25 2V2.75H8.75V2ZM20.25 8.25V7.5C20.25 5.70507 18.7949 4.25 17 4.25H16.75V5C16.75 5.41421 16.4142 5.75 16 5.75C15.5858 5.75 15.25 5.41421 15.25 5V4.25H8.75V5C8.75 5.41421 8.41421 5.75 8 5.75C7.58579 5.75 7.25 5.41421 7.25 5V4.25H7C5.20507 4.25 3.75 5.70507 3.75 7.5V8.25H20.25ZM3.75 9.75H20.25V18C20.25 19.7949 18.7949 21.25 17 21.25H7C5.20507 21.25 3.75 19.7949 3.75 18V9.75Z" fill="#9CA3AF"/>
</g>
</svg>
