<svg width="24" height="24" viewBox="0 0 24 24" fill="none" xmlns="http://www.w3.org/2000/svg">
<g id="Button Leading Icon">
<path id="Union" fill-rule="evenodd" clip-rule="evenodd" d="M11.75 2.5C6.64137 2.5 2.5 6.64137 2.5 11.75C2.5 16.8586 6.64137 21 11.75 21C16.8586 21 21 16.8586 21 11.75C21 10.6097 20.794 9.51917 20.4178 8.51253C20.2729 8.12452 20.4699 7.69244 20.8579 7.54745C21.2459 7.40246 21.678 7.59946 21.8229 7.98747C22.2609 9.15951 22.5 10.4277 22.5 11.75C22.5 17.6871 17.6871 22.5 11.75 22.5C5.81294 22.5 1 17.6871 1 11.75C1 5.81294 5.81294 1 11.75 1C13.7068 1 15.5436 1.52351 17.1255 2.43862C17.4841 2.64602 17.6066 3.10482 17.3992 3.46337C17.1918 3.82191 16.733 3.94443 16.3745 3.73703C15.0147 2.95043 13.4361 2.5 11.75 2.5ZM21.2517 3.19253C21.5596 3.46962 21.5846 3.94384 21.3075 4.25172L13.5699 12.8491C12.5953 13.9319 10.9455 14.0668 9.8079 13.1568L6.28148 10.3357C5.95803 10.0769 5.90559 9.60493 6.16435 9.28148C6.42311 8.95803 6.89507 8.90559 7.21852 9.16435L10.7449 11.9855C11.262 12.3991 12.012 12.3378 12.4549 11.8456L20.1925 3.24828C20.4696 2.94039 20.9438 2.91544 21.2517 3.19253Z" fill="white"/>
</g>
</svg>
