<svg width="392" height="250" viewBox="0 0 392 250" fill="none" xmlns="http://www.w3.org/2000/svg">
<path d="M38.3094 96.8599C38.3094 96.8599 99.56 114.481 133.803 44.5118C168.047 -25.4579 93.0605 1.03987 61.9858 29.7763C43.5849 46.794 3.64572 83.9009 38.3094 96.8599Z" fill="#141414"/>
<path d="M77.8734 250H306.868C331.797 250 355.307 239.827 369.792 222.486C388.049 200.63 402.311 163.791 382.239 105.259C343.733 -7.03205 209.056 -5.44515 179.753 33.3576C140.531 85.2937 90.2919 121.289 59.0056 121.289C50.8851 121.289 41.9246 124.306 33.1343 129.524C-29.0348 166.439 2.17087 250 77.8734 250Z" fill="#141414"/>
<path d="M156.763 79.8442V189.595L108.695 207.596V79.8442H156.763Z" fill="#262626"/>
<path d="M108.695 208.78C108.457 208.78 108.222 208.708 108.021 208.568C107.702 208.348 107.51 207.984 107.51 207.596V79.8443C107.51 79.1903 108.04 78.6606 108.695 78.6606H156.763C157.418 78.6606 157.948 79.1903 157.948 79.8443V189.595C157.948 190.088 157.643 190.531 157.18 190.703L109.112 208.704C108.976 208.754 108.837 208.778 108.697 208.778L108.695 208.78ZM109.88 81.0279V205.89L155.581 188.776V81.0279H109.88Z" fill="#B3B3B3"/>
<path d="M278.632 79.8442H156.763V189.595H278.632V79.8442Z" fill="#262626"/>
<path d="M278.632 190.779H156.763C156.109 190.779 155.579 190.249 155.579 189.595V79.8443C155.579 79.1903 156.109 78.6606 156.763 78.6606H278.632C279.286 78.6606 279.816 79.1903 279.816 79.8443V189.595C279.816 190.249 279.286 190.779 278.632 190.779ZM157.946 188.414H277.447V81.0279H157.946V188.414Z" fill="#737373"/>
<path d="M278.632 189.596V207.597H108.695L156.763 189.596H278.632Z" fill="#262626"/>
<path d="M278.632 208.78H108.695C108.123 208.78 107.632 208.37 107.53 207.808C107.427 207.245 107.744 206.69 108.278 206.489L156.347 188.488C156.48 188.438 156.619 188.414 156.761 188.414H278.63C279.284 188.414 279.814 188.944 279.814 189.598V207.599C279.814 208.252 279.284 208.782 278.63 208.782L278.632 208.78ZM115.225 206.415H277.447V190.779H156.977L115.225 206.415Z" fill="#737373"/>
<path d="M108.695 79.8441L156.763 61.8455H326.7L278.632 79.8441H108.695Z" fill="#262626"/>
<path d="M278.632 81.0278H108.695C108.123 81.0278 107.632 80.618 107.53 80.0556C107.427 79.4932 107.744 78.9374 108.278 78.7368L156.344 60.7382C156.478 60.688 156.617 60.6619 156.759 60.6619H326.696C327.267 60.6619 327.758 61.0717 327.861 61.6341C327.963 62.1964 327.647 62.7523 327.112 62.9528L279.046 80.9515C278.913 81.0016 278.774 81.0278 278.632 81.0278ZM115.227 78.6627H278.418L320.168 63.0291H156.977L115.227 78.6627Z" fill="#737373"/>
<path d="M278.632 207.596L326.7 189.596V61.8457L278.632 79.8444V207.596Z" fill="#262626"/>
<path d="M278.632 208.778C278.394 208.778 278.158 208.706 277.958 208.566C277.639 208.346 277.447 207.982 277.447 207.594V79.8443C277.447 79.3516 277.752 78.9091 278.215 78.7369L326.281 60.7383C326.646 60.6031 327.051 60.6533 327.372 60.8734C327.691 61.0936 327.88 61.4576 327.88 61.8456V189.598C327.88 190.09 327.575 190.533 327.112 190.705L279.046 208.704C278.911 208.754 278.771 208.778 278.632 208.778ZM279.816 80.6639V205.889L325.515 188.776V63.5524L279.816 80.6661V80.6639Z" fill="#737373"/>
<path d="M108.695 79.8442H278.632L262.035 37.7434H92.0984L108.695 79.8442Z" fill="#262626"/>
<path d="M278.632 81.0279H108.695C108.208 81.0279 107.772 80.7315 107.593 80.2781L90.9966 38.1773C90.8526 37.8132 90.8984 37.4012 91.1188 37.0786C91.3391 36.756 91.7057 36.562 92.0962 36.562H262.033C262.52 36.562 262.956 36.8585 263.135 37.3119L279.731 79.4127C279.875 79.7767 279.83 80.1887 279.609 80.5113C279.389 80.8339 279.022 81.0279 278.63 81.0279H278.632ZM109.5 78.6628H276.893L261.228 38.9271H93.8372L109.502 78.6628H109.5Z" fill="#737373"/>
<path d="M235.239 222.922H65.3021L108.695 207.596H278.632L235.239 222.922Z" fill="#262626"/>
<path d="M235.239 224.106H65.3021C64.7261 224.106 64.233 223.692 64.1348 223.123C64.0366 222.554 64.3639 222 64.9072 221.809L108.3 206.48C108.427 206.434 108.56 206.413 108.695 206.413H278.632C279.208 206.413 279.701 206.827 279.799 207.396C279.897 207.965 279.57 208.518 279.027 208.71L235.632 224.039C235.505 224.084 235.372 224.106 235.237 224.106H235.239ZM72.2008 221.741H235.034L271.731 208.778H108.898L72.2008 221.741Z" fill="#737373"/>
<path d="M310.394 222.922L278.632 207.596V79.8442L310.394 95.1726V222.922Z" fill="#262626"/>
<path d="M310.394 224.106C310.219 224.106 310.042 224.067 309.879 223.988L278.117 208.662C277.707 208.464 277.447 208.052 277.447 207.596V79.8442C277.447 79.4365 277.656 79.0594 278.001 78.8414C278.346 78.6256 278.778 78.6017 279.144 78.7782L310.906 94.1045C311.317 94.3028 311.576 94.7148 311.576 95.1704V222.922C311.576 223.33 311.367 223.707 311.022 223.925C310.83 224.045 310.612 224.106 310.394 224.106ZM279.816 206.855L309.211 221.039V95.9137L279.816 81.7297V206.855Z" fill="#737373"/>
<path d="M86.908 191.034L108.695 207.596V79.8442L86.908 63.282V191.034Z" fill="#262626"/>
<path d="M108.695 208.78C108.44 208.78 108.189 208.697 107.977 208.538L86.1902 191.974C85.8956 191.749 85.7233 191.402 85.7233 191.032V63.2821C85.7233 62.833 85.9785 62.4211 86.3822 62.2227C86.7858 62.0221 87.2679 62.0679 87.6258 62.3404L109.413 78.9026C109.707 79.1271 109.88 79.4737 109.88 79.8443V207.596C109.88 208.045 109.624 208.457 109.221 208.656C109.055 208.738 108.874 208.778 108.695 208.778V208.78ZM88.0905 190.448L107.51 205.212V80.4306L88.0905 65.6668V190.446V190.448Z" fill="#737373"/>
<path opacity="0.3" d="M108.695 79.8442V151.383L156.763 179.239H278.632V79.8442H108.695Z" fill="#737373"/>
<path d="M221.116 197.508C220.793 197.508 220.484 197.323 220.344 197.009L202.724 157.639C202.609 157.382 202.63 157.083 202.781 156.846L224.64 122.089C224.889 121.694 225.41 121.574 225.805 121.823C226.2 122.071 226.32 122.592 226.071 122.987L204.454 157.363L221.889 196.32C222.079 196.745 221.889 197.246 221.461 197.436C221.35 197.486 221.232 197.51 221.116 197.51V197.508Z" fill="white"/>
<path d="M203.497 158.139C203.453 158.139 203.407 158.134 203.363 158.128L132.596 146.801C132.136 146.727 131.822 146.293 131.896 145.834C131.97 145.374 132.402 145.058 132.864 145.134L201.803 156.168L172.245 108.583C171.999 108.186 172.121 107.665 172.518 107.419C172.915 107.172 173.436 107.295 173.683 107.691L204.219 156.848C204.393 157.129 204.387 157.487 204.203 157.761C204.044 157.999 203.78 158.139 203.499 158.139H203.497Z" fill="white"/>
<path d="M181.902 154.546C181.297 154.546 180.686 154.496 180.069 154.398C179.609 154.324 179.294 153.89 179.369 153.43C179.443 152.97 179.875 152.656 180.337 152.73C189.378 154.178 193.642 142.609 193.685 142.492C193.772 142.25 193.964 142.06 194.209 141.977C194.453 141.894 194.722 141.925 194.938 142.064C203.017 147.215 211.364 143.357 211.447 143.318C211.868 143.117 212.372 143.296 212.573 143.717C212.773 144.137 212.597 144.641 212.176 144.842C211.813 145.014 203.483 148.892 194.892 144.009C194.375 145.184 193.327 147.274 191.7 149.293C188.905 152.756 185.547 154.546 181.906 154.546H181.902Z" fill="white"/>
<path d="M154.939 150.106C154.126 150.106 153.312 150.064 152.496 149.984C152.031 149.938 151.693 149.524 151.739 149.06C151.785 148.595 152.201 148.257 152.664 148.303C160.8 149.118 168.51 145.738 175.581 138.259C180.918 132.615 183.854 126.638 183.883 126.577C183.992 126.355 184.19 126.191 184.43 126.128C184.67 126.065 184.925 126.113 185.128 126.254C193.454 132.079 202.384 132.868 208.41 132.506C214.979 132.109 219.633 130.298 219.679 130.278C220.113 130.106 220.604 130.32 220.776 130.754C220.948 131.187 220.737 131.678 220.303 131.85C220.106 131.928 215.398 133.768 208.573 134.189C202.456 134.566 193.469 133.807 184.958 128.181C183.935 130.08 181.19 134.782 176.844 139.388C170.19 146.437 162.663 150.108 154.939 150.108V150.106Z" fill="white"/>
<path d="M209.056 170.559C208.899 170.559 208.741 170.515 208.6 170.424C208.362 170.271 184.72 155.143 171.191 152.977C170.731 152.903 170.417 152.469 170.491 152.009C170.565 151.549 170.999 151.235 171.46 151.309C185.34 153.53 208.536 168.373 209.516 169.003C209.909 169.256 210.022 169.779 209.769 170.171C209.608 170.422 209.335 170.559 209.058 170.559H209.056Z" fill="white"/>
<path d="M216.831 187.932C216.65 187.932 216.471 187.873 216.321 187.76C215.887 187.433 172.736 154.936 149.727 149.539C149.273 149.432 148.99 148.977 149.097 148.523C149.204 148.07 149.66 147.787 150.113 147.893C159.933 150.195 174.237 157.382 192.627 169.253C203.335 176.166 212.368 182.729 215.828 185.286C215.57 181.935 215.108 174.446 215.254 165.565C215.437 154.431 216.646 138.758 221.363 127.314C221.54 126.882 222.035 126.677 222.467 126.854C222.899 127.033 223.104 127.525 222.927 127.957C214.08 149.424 217.634 186.629 217.671 187.001C217.704 187.335 217.536 187.657 217.244 187.821C217.115 187.893 216.973 187.93 216.831 187.93V187.932Z" fill="white"/>
<path d="M237.626 151.154C239.867 151.154 241.684 149.069 241.684 146.496C241.684 143.923 239.867 141.838 237.626 141.838C235.384 141.838 233.568 143.923 233.568 146.496C233.568 149.069 235.384 151.154 237.626 151.154Z" fill="white"/>
<path d="M237.165 144.569H233.733C232.439 144.569 231.388 143.519 231.388 142.226V140.997C231.388 140.809 231.538 140.659 231.726 140.659C231.914 140.659 232.064 140.809 232.064 140.997V142.226C232.064 143.146 232.813 143.894 233.733 143.894H237.165C237.353 143.894 237.503 144.044 237.503 144.231C237.503 144.419 237.353 144.569 237.165 144.569Z" fill="white"/>
<path d="M241.52 144.569H238.088C237.901 144.569 237.75 144.419 237.75 144.231C237.75 144.044 237.901 143.894 238.088 143.894H241.52C242.441 143.894 243.189 143.146 243.189 142.226V140.997C243.189 140.809 243.34 140.659 243.527 140.659C243.715 140.659 243.866 140.809 243.866 140.997V142.226C243.866 143.519 242.814 144.569 241.52 144.569Z" fill="white"/>
<path d="M231.724 152.737C231.536 152.737 231.386 152.587 231.386 152.399V151.17C231.386 149.877 232.437 148.827 233.731 148.827H237.163C237.351 148.827 237.501 148.977 237.501 149.165C237.501 149.352 237.351 149.502 237.163 149.502H233.731C232.81 149.502 232.062 150.25 232.062 151.17V152.399C232.062 152.587 231.911 152.737 231.724 152.737Z" fill="white"/>
<path d="M243.527 152.737C243.34 152.737 243.189 152.587 243.189 152.399V151.17C243.189 150.25 242.441 149.502 241.52 149.502H238.088C237.901 149.502 237.75 149.352 237.75 149.165C237.75 148.977 237.901 148.827 238.088 148.827H241.52C242.814 148.827 243.866 149.877 243.866 151.17V152.399C243.866 152.587 243.715 152.737 243.527 152.737Z" fill="white"/>
<path d="M243.772 146.834H231.48C231.292 146.834 231.142 146.684 231.142 146.496C231.142 146.309 231.292 146.158 231.48 146.158H243.772C243.959 146.158 244.11 146.309 244.11 146.496C244.11 146.684 243.959 146.834 243.772 146.834Z" fill="white"/>
<path d="M238.47 81.0759H236.779V146.496H238.47V81.0759Z" fill="white"/>
</svg>
