<svg width="140" height="54" viewBox="0 0 140 54" fill="none" xmlns="http://www.w3.org/2000/svg">
<path d="M6.39838 24C5.16638 24 4.16638 23.712 3.39838 23.136C2.64638 22.544 2.24638 21.8 2.19838 20.904C2.15038 20.632 2.12638 20.12 2.12638 19.368H4.57438C4.57438 19.816 4.59038 20.16 4.62238 20.4C4.67038 20.64 4.79038 20.808 4.98238 20.904C5.19038 21 5.51038 21.048 5.94238 21.048H8.31838C9.47038 21.048 10.0464 20.704 10.0464 20.016C10.0464 19.824 10.0144 19.64 9.95038 19.464C9.67838 18.648 9.19038 17.648 8.48638 16.464C7.79838 15.28 7.04638 14.104 6.23038 12.936L8.36638 11.208C9.32638 12.52 10.1984 13.864 10.9824 15.24C11.7664 16.616 12.2784 17.8 12.5184 18.792C12.6304 19.192 12.6864 19.616 12.6864 20.064C12.6864 21.216 12.2784 22.16 11.4624 22.896C10.6464 23.632 9.47838 24 7.95838 24H6.39838ZM20.0495 24C19.8415 24 19.5775 23.984 19.2575 23.952C19.3535 25.584 18.9615 26.832 18.0815 27.696C17.2015 28.576 15.8255 29.272 13.9535 29.784L12.6335 30.144L11.9375 27.288L13.2575 26.928C14.0735 26.704 14.7135 26.488 15.1775 26.28C15.6415 26.088 16.0015 25.824 16.2575 25.488C16.5135 25.168 16.6415 24.744 16.6415 24.216C16.6415 24.104 16.6255 23.92 16.5935 23.664L15.6335 16.776L18.2255 16.368L18.3455 17.208L18.7295 19.488C18.8415 20.128 18.9855 20.552 19.1615 20.76C19.3375 20.952 19.6335 21.048 20.0495 21.048H20.1935L20.3615 22.536L20.1935 24H20.0495ZM20.0206 21.048H20.5726C21.8046 21.048 22.3886 20.568 22.3246 19.608L21.8686 7.752L24.5086 7.608L24.9646 19.488C24.9966 20.288 24.8446 21.032 24.5086 21.72C24.1886 22.408 23.6926 22.96 23.0206 23.376C22.3486 23.792 21.5326 24 20.5726 24H20.0206V21.048ZM28.6361 27.288C30.6201 26.856 31.9961 26.528 32.7641 26.304C33.5321 26.08 34.0681 25.8 34.3721 25.464C34.6761 25.144 34.8041 24.656 34.7561 24H31.9961C30.6521 24 29.5721 23.576 28.7561 22.728C27.9561 21.88 27.5561 20.744 27.5561 19.32C27.5561 18.424 27.7481 17.584 28.1321 16.8C28.5321 16 29.0761 15.36 29.7641 14.88C30.4681 14.4 31.2601 14.16 32.1401 14.16C33.4201 14.16 34.5001 14.656 35.3801 15.648C36.2601 16.64 36.7881 17.928 36.9641 19.512L37.1321 21.048H38.5481L38.7161 22.536L38.5481 24H38.4761H37.4201C37.4681 25.296 37.2281 26.312 36.7001 27.048C36.1721 27.784 35.3321 28.368 34.1801 28.8C33.0281 29.248 31.3561 29.704 29.1641 30.168L28.6361 27.288ZM30.2201 19.32C30.2201 19.912 30.3561 20.352 30.6281 20.64C30.9001 20.912 31.3561 21.048 31.9961 21.048H34.4441L34.3241 19.824C34.2441 18.944 34.0121 18.272 33.6281 17.808C33.2441 17.344 32.7561 17.112 32.1641 17.112C31.5561 17.112 31.0761 17.328 30.7241 17.76C30.3881 18.176 30.2201 18.696 30.2201 19.32ZM50.4219 24C49.0939 24 47.8859 23.432 46.7979 22.296C46.6699 22.488 46.5659 22.624 46.4859 22.704C46.1659 23.12 45.7419 23.44 45.2139 23.664C44.7019 23.888 44.1099 24 43.4379 24H38.3019V21.048H43.4619C43.7659 21.048 44.0219 20.984 44.2299 20.856C44.5019 20.632 44.6379 20.352 44.6379 20.016C44.6379 19.76 44.5659 19.528 44.4219 19.32L39.1179 11.808L39.7179 9.576L48.3819 6.384L49.3179 9.144L42.3819 11.664L46.4139 17.544L46.6059 17.856C47.1179 18.704 47.5739 19.36 47.9739 19.824C48.3739 20.272 48.7579 20.592 49.1259 20.784C49.5099 20.96 49.9419 21.048 50.4219 21.048H50.7579L50.9259 22.536L50.7579 24H50.4219ZM45.6459 3.576L46.3179 5.376L40.4619 7.488L39.8139 5.688L45.6459 3.576ZM50.5128 21.048H52.0248C52.6808 21.048 53.1448 20.944 53.4168 20.736C53.6888 20.528 53.8088 20.208 53.7768 19.776V19.704L53.5128 16.752L56.1528 16.488L56.4168 19.44V19.512C56.4808 20.12 56.6248 20.528 56.8488 20.736C57.0888 20.944 57.5288 21.048 58.1688 21.048L58.3368 22.536L58.1688 24C56.8568 24 55.8488 23.656 55.1448 22.968C54.3608 23.656 53.3208 24 52.0248 24H50.5128V21.048ZM52.3368 11.208H55.2408V14.112H52.3368V11.208ZM57.9191 21.048H61.9511C62.6391 21.048 63.1111 20.944 63.3671 20.736C63.6391 20.512 63.7591 20.168 63.7271 19.704L63.4631 16.752L66.0791 16.488L66.3431 19.44V19.608C66.4071 20.168 66.5591 20.552 66.7991 20.76C67.0391 20.952 67.4711 21.048 68.0951 21.048L68.2631 22.536L68.0951 24C66.8151 24 65.8071 23.656 65.0711 22.968C64.2551 23.656 63.2151 24 61.9511 24H57.9191V21.048ZM56.5991 26.256H59.1911V28.824H56.5991V26.256ZM61.3031 26.256H63.8711V28.824H61.3031V26.256ZM67.8566 21.048H68.4086C69.6406 21.048 70.2246 20.568 70.1606 19.608L69.7046 7.752L72.3446 7.608L72.8006 19.488C72.8326 20.288 72.6806 21.032 72.3446 21.72C72.0246 22.408 71.5286 22.96 70.8566 23.376C70.1846 23.792 69.3686 24 68.4086 24H67.8566V21.048Z" fill="white"/>
<path d="M26.4242 48.076H30.3962V49H25.2362V40.468H26.4242V48.076ZM32.6918 49H31.5518V42.664H32.6918V49ZM31.4078 40.888C31.4078 40.704 31.4718 40.552 31.5998 40.432C31.7358 40.312 31.9038 40.252 32.1038 40.252C32.3118 40.252 32.4838 40.312 32.6198 40.432C32.7558 40.552 32.8238 40.704 32.8238 40.888C32.8238 41.072 32.7558 41.224 32.6198 41.344C32.4838 41.464 32.3118 41.524 32.1038 41.524C31.9038 41.524 31.7358 41.464 31.5998 41.344C31.4718 41.224 31.4078 41.072 31.4078 40.888ZM34.3266 42.664H35.3946L35.4306 43.876C35.6146 43.468 35.8906 43.148 36.2586 42.916C36.6266 42.684 37.0346 42.568 37.4826 42.568C38.1466 42.568 38.6426 42.76 38.9706 43.144C39.3066 43.528 39.4746 44.108 39.4746 44.884V49H38.3346V44.92C38.3346 44.416 38.2306 44.048 38.0226 43.816C37.8146 43.576 37.4786 43.456 37.0146 43.456C36.6466 43.456 36.3266 43.56 36.0546 43.768C35.7906 43.976 35.5946 44.268 35.4666 44.644V49H34.3266V42.664ZM43.3588 51.436C42.9268 51.436 42.5228 51.344 42.1468 51.16C41.7708 50.984 41.4428 50.732 41.1628 50.404L41.6428 49.78C41.8988 50.044 42.1548 50.24 42.4108 50.368C42.6748 50.504 42.9748 50.572 43.3108 50.572C43.8548 50.572 44.2748 50.408 44.5708 50.08C44.8668 49.76 45.0148 49.312 45.0148 48.736V48.04C44.8228 48.36 44.5708 48.604 44.2588 48.772C43.9468 48.94 43.5908 49.024 43.1908 49.024C42.4308 49.024 41.8268 48.74 41.3788 48.172C40.9388 47.604 40.7188 46.82 40.7188 45.82V45.736C40.7188 44.744 40.9428 43.968 41.3908 43.408C41.8388 42.848 42.4428 42.568 43.2028 42.568C43.6268 42.568 43.9988 42.652 44.3188 42.82C44.6388 42.988 44.8948 43.236 45.0868 43.564L45.1228 42.664H46.1668V48.736C46.1668 49.144 46.0748 49.552 45.8908 49.96C45.7148 50.376 45.4188 50.724 45.0028 51.004C44.5868 51.292 44.0388 51.436 43.3588 51.436ZM41.8708 45.892C41.8708 46.62 42.0108 47.188 42.2908 47.596C42.5708 47.996 42.9668 48.196 43.4788 48.196C44.2228 48.196 44.7348 47.876 45.0148 47.236V44.488C44.8788 44.176 44.6788 43.94 44.4148 43.78C44.1588 43.612 43.8468 43.528 43.4788 43.528C42.9668 43.528 42.5708 43.736 42.2908 44.152C42.0108 44.56 41.8708 45.14 41.8708 45.892ZM50.2891 49.12C49.7211 49.12 49.2171 48.992 48.7771 48.736C48.3451 48.48 48.0051 48.12 47.7571 47.656C47.5171 47.192 47.3891 46.656 47.3731 46.048L47.3611 45.724C47.3531 45.14 47.4611 44.608 47.6851 44.128C47.9171 43.64 48.2531 43.256 48.6931 42.976C49.1411 42.688 49.6691 42.544 50.2771 42.544C50.8611 42.544 51.3731 42.68 51.8131 42.952C52.2531 43.216 52.5931 43.592 52.8331 44.08C53.0731 44.56 53.1931 45.12 53.1931 45.76V45.928C53.1931 46.56 53.0731 47.116 52.8331 47.596C52.5931 48.076 52.2531 48.452 51.8131 48.724C51.3731 48.988 50.8651 49.12 50.2891 49.12ZM48.5011 45.916C48.5011 46.636 48.6611 47.204 48.9811 47.62C49.3011 48.028 49.7371 48.232 50.2891 48.232C50.8331 48.232 51.2651 48.028 51.5851 47.62C51.9051 47.212 52.0651 46.66 52.0651 45.964V45.736C52.0651 45.024 51.9051 44.464 51.5851 44.056C51.2651 43.64 50.8291 43.432 50.2771 43.432C49.7411 43.432 49.3131 43.628 48.9931 44.02C48.6811 44.404 48.5171 44.932 48.5011 45.604V45.916ZM55.6371 49H54.4971V40.072H55.6371V49ZM59.8399 49.12C59.2719 49.12 58.7679 48.992 58.3279 48.736C57.8959 48.48 57.5559 48.12 57.3079 47.656C57.0679 47.192 56.9399 46.656 56.9239 46.048L56.9119 45.724C56.9039 45.14 57.0119 44.608 57.2359 44.128C57.4679 43.64 57.8039 43.256 58.2439 42.976C58.6919 42.688 59.2199 42.544 59.8279 42.544C60.4119 42.544 60.9239 42.68 61.3639 42.952C61.8039 43.216 62.1439 43.592 62.3839 44.08C62.6239 44.56 62.7439 45.12 62.7439 45.76V45.928C62.7439 46.56 62.6239 47.116 62.3839 47.596C62.1439 48.076 61.8039 48.452 61.3639 48.724C60.9239 48.988 60.4159 49.12 59.8399 49.12ZM58.0519 45.916C58.0519 46.636 58.2119 47.204 58.5319 47.62C58.8519 48.028 59.2879 48.232 59.8399 48.232C60.3839 48.232 60.8159 48.028 61.1359 47.62C61.4559 47.212 61.6159 46.66 61.6159 45.964V45.736C61.6159 45.024 61.4559 44.464 61.1359 44.056C60.8159 43.64 60.3799 43.432 59.8279 43.432C59.2919 43.432 58.8639 43.628 58.5439 44.02C58.2319 44.404 58.0679 44.932 58.0519 45.604V45.916ZM63.9639 42.664H65.0439L65.0679 43.816C65.2359 43.424 65.4679 43.116 65.7639 42.892C66.0679 42.66 66.4159 42.544 66.8079 42.544C67.0079 42.544 67.1719 42.568 67.2999 42.616L67.2639 43.672C67.1359 43.64 66.9599 43.624 66.7359 43.624C66.3439 43.624 66.0079 43.724 65.7279 43.924C65.4479 44.116 65.2399 44.408 65.1039 44.8V49H63.9639V42.664ZM70.2598 49.096C69.5238 49.096 68.9398 48.82 68.5078 48.268C68.0838 47.716 67.8678 46.936 67.8598 45.928V45.784C67.8598 44.768 68.0678 43.98 68.4838 43.42C68.9078 42.852 69.4998 42.568 70.2598 42.568C70.6598 42.568 71.0158 42.656 71.3278 42.832C71.6398 43 71.8878 43.244 72.0718 43.564V40.072H73.2238V49H72.1918L72.1318 48.016C71.9318 48.368 71.6718 48.636 71.3518 48.82C71.0318 49.004 70.6678 49.096 70.2598 49.096ZM68.9998 45.916C69.0158 46.66 69.1518 47.228 69.4078 47.62C69.6718 48.004 70.0478 48.196 70.5358 48.196C70.9118 48.196 71.2278 48.112 71.4838 47.944C71.7478 47.768 71.9438 47.512 72.0718 47.176V44.488C71.9438 44.152 71.7478 43.896 71.4838 43.72C71.2278 43.544 70.9118 43.456 70.5358 43.456C70.0558 43.456 69.6838 43.648 69.4198 44.032C69.1558 44.408 69.0158 44.952 68.9998 45.664V45.916Z" fill="white"/>
<g clip-path="url(#clip0_3454_32019)">
<path d="M90 27C90 6.4125 94.4125 2 115 2C135.588 2 140 6.4125 140 27C140 47.5875 135.588 52 115 52C94.4125 52 90 47.5875 90 27Z" fill="url(#paint0_linear_3454_32019)"/>
<path d="M118.818 40.2083H111.61C108.89 40.2083 106.918 39.6869 105.694 38.6443C104.493 37.5789 103.892 35.8563 103.892 33.4763V16.0003H108.618V33.4763C108.618 34.4283 108.833 35.0856 109.264 35.4483C109.695 35.8109 110.477 35.9923 111.61 35.9923H118.818V40.2083Z" fill="white"/>
<path d="M126.043 12.444C126.406 12.784 126.587 13.5207 126.587 14.654C126.587 15.7873 126.406 16.5353 126.043 16.898C125.703 17.2607 124.966 17.442 123.833 17.442C122.7 17.442 121.952 17.2607 121.589 16.898C121.226 16.5353 121.045 15.7873 121.045 14.654C121.045 13.5207 121.226 12.784 121.589 12.444C121.952 12.0813 122.7 11.9 123.833 11.9C124.966 11.9 125.703 12.0813 126.043 12.444Z" fill="white"/>
</g>
<defs>
<linearGradient id="paint0_linear_3454_32019" x1="115" y1="2" x2="115" y2="52" gradientUnits="userSpaceOnUse">
<stop stop-color="#ffa800"/>
<stop offset="1" stop-color="#ffa800"/>
</linearGradient>
<clipPath id="clip0_3454_32019">
<rect width="50" height="50" fill="white" transform="translate(90 2)"/>
</clipPath>
</defs>
</svg>
