<svg width="48" height="48" fill="none" xmlns="http://www.w3.org/2000/svg" class="" data-testid="activity-icon"><rect width="48" height="48" rx="11.2" fill="#ffaa0056"></rect><path clip-rule="evenodd" d="m21.583 24.001 6.133-3.541-6.133-3.542v7.083z" stroke="#ffa800" stroke-width="2.184" stroke-linecap="round" stroke-linejoin="round"></path><path clip-rule="evenodd" d="M35.177 11.802H12.825c-.87 0-1.574.704-1.574 1.574v14.167c0 .87.704 1.574 1.574 1.574h22.352c.87 0 1.574-.704 1.574-1.574V13.376c0-.87-.704-1.574-1.574-1.574z" stroke="#ffa800" stroke-width="2.184" stroke-linecap="round" stroke-linejoin="round"></path><path d="M19.129 33.832a2.125 2.125 0 1 1-3.006 3.005 2.125 2.125 0 0 1 3.006-3.005M36.75 35.334h-17M11.251 35.334h4.25" stroke="#ffa800" stroke-width="2.184" stroke-linecap="round" stroke-linejoin="round"></path></svg>