<svg width="48" height="48" viewBox="0 0 48 48" fill="none" xmlns="http://www.w3.org/2000/svg" class="blocked" data-testid="activity-icon"><rect width="48" height="48" rx="11.2" fill="#ffaa0056"></rect><path d="M36.7554 35.3381H14.0793C12.5138 35.3381 11.2448 34.069 11.2448 32.5036V29.669C11.2448 28.1036 12.5138 26.8345 14.0793 26.8345H36.7554" stroke="#ffa800" stroke-width="2.18" stroke-linecap="round" stroke-linejoin="round"></path><path d="M35.3381 31.0863H15.4965" stroke="#ffa800" stroke-width="2.18" stroke-linecap="round" stroke-linejoin="round"></path><path fill-rule="evenodd" clip-rule="evenodd" d="M17.3177 21.1655C19.6659 21.1655 21.5695 19.2619 21.5695 16.9137C21.5695 14.5655 19.6659 12.6619 17.3177 12.6619C14.9695 12.6619 13.0659 14.5655 13.0659 16.9137C13.0659 19.2619 14.9695 21.1655 17.3177 21.1655Z" stroke="#ffa800" stroke-width="2.18" stroke-linecap="round" stroke-linejoin="round"></path><path fill-rule="evenodd" clip-rule="evenodd" d="M30.6823 21.1655C33.0305 21.1655 34.9341 19.2619 34.9341 16.9137C34.9341 14.5655 33.0305 12.6619 30.6823 12.6619C28.3341 12.6619 26.4305 14.5655 26.4305 16.9137C26.4305 19.2619 28.3341 21.1655 30.6823 21.1655Z" stroke="#ffa800" stroke-width="2.18" stroke-linecap="round" stroke-linejoin="round"></path><path d="M21.5695 16.9137C22.143 16.1488 23.0433 15.6986 23.9993 15.6986C24.9554 15.6986 25.8557 16.1488 26.4292 16.9137" stroke="#ffa800" stroke-width="2.18" stroke-linecap="round" stroke-linejoin="round"></path><path d="M11.2448 16.9137H13.0659" stroke="#ffa800" stroke-width="2.18" stroke-linecap="round" stroke-linejoin="round"></path><path d="M34.9341 16.9137H36.7553" stroke="#ffa800" stroke-width="2.18" stroke-linecap="round" stroke-linejoin="round"></path></svg>