<svg width="48" height="48" fill="none" xmlns="http://www.w3.org/2000/svg" class="blocked" data-testid="activity-icon"><rect width="48" height="48" rx="12.256" fill="#ffaa0056"></rect><path d="M33.212 33.303v2.742a.709.709 0 0 1-1.21.501l-3.243-3.243M32.504 20.457h.714a3.538 3.538 0 0 1 3.538 3.538v5.77a3.538 3.538 0 0 1-3.538 3.538v0" stroke="#ffa800" stroke-width="2.125" stroke-linecap="round" stroke-linejoin="round"></path><path d="M28.764 33.303h-4.06a3.538 3.538 0 0 1-3.539-3.538v-1.513" stroke="#ffa800" stroke-width="2.125" stroke-linecap="round" stroke-linejoin="round"></path><path clip-rule="evenodd" d="m19.331 24-3.334 3.335a.709.709 0 0 1-1.21-.502V24h-.005a3.538 3.538 0 0 1-3.538-3.538v-5.679a3.538 3.538 0 0 1 3.538-3.538h9.931a3.538 3.538 0 0 1 3.538 3.538v5.68A3.538 3.538 0 0 1 24.713 24h-5.382z" stroke="#ffa800" stroke-width="2.125" stroke-linecap="round" stroke-linejoin="round"></path></svg>