<svg width="200" height="201" viewBox="0 0 200 201" fill="none" xmlns="http://www.w3.org/2000/svg">
<g clip-path="url(#clip0_5001_2)">
<path d="M0 100.5C0 18.15 17.65 0.5 100 0.5C182.35 0.5 200 18.15 200 100.5C200 182.85 182.35 200.5 100 200.5C17.65 200.5 0 182.85 0 100.5Z" fill="url(#paint0_linear_5001_2)"/>
<path d="M120.731 158.333H88.9313C76.9313 158.333 68.2313 156.033 62.8313 151.433C57.5313 146.733 54.8813 139.133 54.8813 128.633V51.533H75.7313V128.633C75.7313 132.833 76.6813 135.733 78.5813 137.333C80.4813 138.933 83.9313 139.733 88.9313 139.733H120.731V158.333Z" fill="white"/>
<path d="M147.048 40.4C148.648 41.9 149.448 45.15 149.448 50.15C149.448 55.15 148.648 58.45 147.048 60.05C145.548 61.65 142.298 62.45 137.298 62.45C132.298 62.45 128.998 61.65 127.398 60.05C125.798 58.45 124.998 55.15 124.998 50.15C124.998 45.15 125.798 41.9 127.398 40.4C128.998 38.8 132.298 38 137.298 38C142.298 38 145.548 38.8 147.048 40.4Z" fill="white"/>
</g>
<defs>
<linearGradient id="paint0_linear_5001_2" x1="100" y1="0.5" x2="100" y2="200.5" gradientUnits="userSpaceOnUse">
<stop stop-color="#ffa800"/>
<stop offset="1" stop-color="#ffc820"/>
</linearGradient>
<clipPath id="clip0_5001_2">
<rect width="200" height="200" fill="white" transform="translate(0 0.5)"/>
</clipPath>
</defs>
</svg>
