<svg width="20" height="20" viewBox="0 0 20 20" fill="none" xmlns="http://www.w3.org/2000/svg">
<path d="M8.33398 8.33325V7.49992C8.33398 6.57944 9.08018 5.83325 10.0007 5.83325V5.83325C10.9211 5.83325 11.6673 6.57944 11.6673 7.49992V8.33325" stroke="white" stroke-linecap="round" stroke-linejoin="round"/>
<path d="M11.3327 8.33325H8.66602C7.56145 8.33325 6.66602 9.22868 6.66602 10.3333V11.3333C6.66602 12.4378 7.56144 13.3333 8.66601 13.3333H11.3327C12.4373 13.3333 13.3327 12.4378 13.3327 11.3333V10.3333C13.3327 9.22868 12.4373 8.33325 11.3327 8.33325Z" stroke="white" stroke-linecap="round" stroke-linejoin="round"/>
<path d="M18.3327 10.0001C18.3327 5.39771 14.6017 1.66675 9.99935 1.66675C5.39698 1.66675 1.66602 5.39771 1.66602 10.0001C1.66602 14.6025 5.39698 18.3334 9.99935 18.3334C13.2713 18.3334 16.1028 16.4477 17.4665 13.7038" stroke="white" stroke-linecap="round"/>
<path d="M18.334 10.0001L15.834 9.16675" stroke="white" stroke-linecap="round" stroke-linejoin="round"/>
</svg>
