<svg width="24" height="24" viewBox="0 0 24 24" fill="none" xmlns="http://www.w3.org/2000/svg">
<path fill-rule="evenodd" clip-rule="evenodd" d="M8 1.25C5.92893 1.25 4.25 2.92893 4.25 5V19C4.25 21.0711 5.92893 22.75 8 22.75H16C18.0711 22.75 19.75 21.0711 19.75 19V5C19.75 2.92893 18.0711 1.25 16 1.25H8ZM5.75 5C5.75 3.75736 6.75736 2.75 8 2.75H16C17.2426 2.75 18.25 3.75736 18.25 5V19C18.25 20.2426 17.2426 21.25 16 21.25H8C6.75736 21.25 5.75 20.2426 5.75 19V5ZM11 18.25C10.5858 18.25 10.25 18.5858 10.25 19C10.25 19.4142 10.5858 19.75 11 19.75H13C13.4142 19.75 13.75 19.4142 13.75 19C13.75 18.5858 13.4142 18.25 13 18.25H11Z" fill="#737373"/>
</svg>
