<svg width="24" height="24" viewBox="0 0 24 24" fill="none" xmlns="http://www.w3.org/2000/svg">
<g id="Leading Icon">
<path id="Union" fill-rule="evenodd" clip-rule="evenodd" d="M12 2.75C10.2051 2.75 8.75 4.20507 8.75 6V7.25H15.25V6C15.25 4.20507 13.7949 2.75 12 2.75ZM16.75 7.30888V6C16.75 3.37665 14.6234 1.25 12 1.25C9.37665 1.25 7.25 3.37665 7.25 6V7.30888C4.98301 7.66846 3.25 9.63185 3.25 12V18C3.25 20.6234 5.37665 22.75 8 22.75H16C18.6234 22.75 20.75 20.6234 20.75 18V12C20.75 9.63185 19.017 7.66846 16.75 7.30888ZM8 8.75C6.20507 8.75 4.75 10.2051 4.75 12V18C4.75 19.7949 6.20507 21.25 8 21.25H16C17.7949 21.25 19.25 19.7949 19.25 18V12C19.25 10.2051 17.7949 8.75 16 8.75H8ZM12 13.75C11.3096 13.75 10.75 14.3096 10.75 15C10.75 15.6904 11.3096 16.25 12 16.25C12.6904 16.25 13.25 15.6904 13.25 15C13.25 14.3096 12.6904 13.75 12 13.75ZM9.25 15C9.25 13.4812 10.4812 12.25 12 12.25C13.5188 12.25 14.75 13.4812 14.75 15C14.75 16.5188 13.5188 17.75 12 17.75C10.4812 17.75 9.25 16.5188 9.25 15Z" fill="#9CA3AF"/>
</g>
</svg>
