<svg width="25" height="24" viewBox="0 0 25 24" fill="none" xmlns="http://www.w3.org/2000/svg">
<g id="Button Leading Icon">
<path id="Union" fill-rule="evenodd" clip-rule="evenodd" d="M12.2502 2.5C11.5598 2.5 11.0002 3.05964 11.0002 3.75V4.0339C11.4132 4.01142 11.83 4 12.2502 4C12.6703 4 13.0872 4.01142 13.5002 4.0339V3.75C13.5002 3.05964 12.9405 2.5 12.2502 2.5ZM15.0002 4.16565V3.75C15.0002 2.23122 13.769 1 12.2502 1C10.7314 1 9.50017 2.23122 9.50017 3.75V4.16565C7.11519 4.4559 4.8871 5.11797 2.92162 6.0758C2.54926 6.25725 2.39451 6.7062 2.57597 7.07855C2.75742 7.45091 3.20637 7.60566 3.57872 7.4242C6.07036 6.20998 9.04591 5.5 12.2502 5.5C15.4544 5.5 18.43 6.20998 20.9216 7.4242C21.294 7.60566 21.7429 7.45091 21.9244 7.07855C22.1058 6.7062 21.9511 6.25725 21.5787 6.0758C19.6132 5.11797 17.3851 4.4559 15.0002 4.16565ZM5.19265 8.00221C5.60564 7.97044 5.96619 8.27948 5.99796 8.69248L6.71387 17.9993C6.84412 19.6925 8.25605 21 9.95429 21H14.546C16.2443 21 17.6562 19.6925 17.7865 17.9993L18.5024 8.69248C18.5341 8.27948 18.8947 7.97044 19.3077 8.00221C19.7207 8.03398 20.0297 8.39453 19.998 8.80752L19.2821 18.1143C19.0917 20.589 17.0281 22.5 14.546 22.5H9.95429C7.47225 22.5 5.40865 20.589 5.21829 18.1143L4.50238 8.80752C4.47061 8.39453 4.77965 8.03398 5.19265 8.00221ZM10.2502 10C10.6644 10 11.0002 10.3358 11.0002 10.75V16.75C11.0002 17.1642 10.6644 17.5 10.2502 17.5C9.83596 17.5 9.50017 17.1642 9.50017 16.75V10.75C9.50017 10.3358 9.83596 10 10.2502 10ZM14.2502 10C14.6644 10 15.0002 10.3358 15.0002 10.75V16.75C15.0002 17.1642 14.6644 17.5 14.2502 17.5C13.836 17.5 13.5002 17.1642 13.5002 16.75V10.75C13.5002 10.3358 13.836 10 14.2502 10Z" fill="#FF94AE"/>
</g>
</svg>
