<svg width="24" height="24" viewBox="0 0 24 24" fill="none" xmlns="http://www.w3.org/2000/svg">
<g id="Leading Icon">
<path id="Union" fill-rule="evenodd" clip-rule="evenodd" d="M12 2.75C6.89137 2.75 2.75 6.89137 2.75 12C2.75 17.1086 6.89137 21.25 12 21.25C15.6308 21.25 18.7744 19.1582 20.2889 16.1107C20.4732 15.7397 20.9234 15.5885 21.2943 15.7728C21.6652 15.9571 21.8165 16.4073 21.6322 16.7782C19.874 20.3161 16.2219 22.75 12 22.75C6.06294 22.75 1.25 17.9371 1.25 12C1.25 6.06294 6.06294 1.25 12 1.25C17.931 1.25 22.7402 6.05312 22.75 11.9818C22.7511 12.0276 22.748 12.0739 22.7404 12.1202C22.7082 12.3205 22.5965 12.4943 22.4388 12.6083C22.351 12.6717 22.249 12.7166 22.1384 12.7372C22.0546 12.7531 21.9672 12.7547 21.8798 12.7404C21.8338 12.733 21.7891 12.7214 21.7462 12.706L18.7628 11.7115C18.3699 11.5805 18.1575 11.1558 18.2885 10.7628C18.4195 10.3699 18.8442 10.1575 19.2372 10.2885L21.1899 10.9394C20.6637 6.33026 16.75 2.75 12 2.75ZM10.75 9C10.75 8.30964 11.3096 7.75 12 7.75C12.6904 7.75 13.25 8.30964 13.25 9V9.25H10.75V9ZM9.25 9.35352V9C9.25 7.48122 10.4812 6.25 12 6.25C13.5188 6.25 14.75 7.48122 14.75 9V9.35352C15.9043 9.67998 16.75 10.7412 16.75 12V14C16.75 15.5188 15.5188 16.75 14 16.75H10C8.48122 16.75 7.25 15.5188 7.25 14V12C7.25 10.7412 8.09575 9.67998 9.25 9.35352ZM14 10.75C14.6904 10.75 15.25 11.3096 15.25 12V14C15.25 14.6904 14.6904 15.25 14 15.25H10C9.30964 15.25 8.75 14.6904 8.75 14V12C8.75 11.3096 9.30964 10.75 10 10.75H14Z" fill="#9CA3AF"/>
</g>
</svg>
