<svg width="48" height="48" fill="none" xmlns="http://www.w3.org/2000/svg" class="blocked" data-testid="activity-icon"><rect width="48" height="48" rx="11.2" fill="#ffaa0056"></rect><path clip-rule="evenodd" d="M27.07 15.738h-1.654v-1.653a2.833 2.833 0 0 1 2.833-2.834h1.654v1.654a2.834 2.834 0 0 1-2.834 2.833v0z" stroke="#ffa800" stroke-width="2.184" stroke-linecap="round" stroke-linejoin="round"></path><path d="M25.417 25.418a5.531 5.531 0 0 1-5.532-5.532M19.885 19.886c0-2.414 1.106-4.15 3.319-4.15" stroke="#ffa800" stroke-width="2.184" stroke-linecap="round" stroke-linejoin="round"></path><path d="M25.416 25.418a5.531 5.531 0 0 0 5.532-5.532M30.948 19.886c0-2.414-1.106-4.15-3.32-4.15" stroke="#ffa800" stroke-width="2.184" stroke-linecap="round" stroke-linejoin="round"></path><path d="M27.63 15.738c-1.107 0-1.734.354-2.213.354-.479 0-1.107-.354-2.213-.354M36.22 25.418H17.448a2.833 2.833 0 0 0-2.834 2.833v0a2.833 2.833 0 0 0 2.834 2.834h18.77M35.502 25.418v5.667" stroke="#ffa800" stroke-width="2.184" stroke-linecap="round" stroke-linejoin="round"></path><path d="M33.384 31.084h-18.77a2.833 2.833 0 0 0-2.834 2.834v0a2.833 2.833 0 0 0 2.834 2.833h18.77M32.67 31.084v5.667" stroke="#ffa800" stroke-width="2.184" stroke-linecap="round" stroke-linejoin="round"></path></svg>