<svg width="48" height="48" fill="none" xmlns="http://www.w3.org/2000/svg" class="blocked" data-testid="activity-icon"><rect width="48" height="48" rx="12.256" fill="#ffaa0056"></rect><path clip-rule="evenodd" d="M31.623 13.542v0a3.007 3.007 0 0 1 0 4.252L17.469 31.948c-.364.363-.819.62-1.317.746l-4.908 1.227 1.228-4.908c.124-.498.382-.954.745-1.317l14.155-14.154a3.006 3.006 0 0 1 4.25 0z" stroke="#ffa800" stroke-width="2.125" stroke-linecap="round" stroke-linejoin="round"></path><path d="m28.96 20.457-4.252-4.252M36.755 32.504l-1.55 1.55a4.385 4.385 0 0 1-6.201 0v0a4.393 4.393 0 0 0-6.202 0" stroke="#ffa800" stroke-width="2.125" stroke-linecap="round" stroke-linejoin="round"></path></svg>